<?xml version="1.0" standalone="no"?><!DOCTYPE svg PUBLIC "-//W3C//DTD SVG 1.1//EN" "http://www.w3.org/Graphics/SVG/1.1/DTD/svg11.dtd"><svg t="1601460805115" class="icon" viewBox="0 0 1024 1024" version="1.1" xmlns="http://www.w3.org/2000/svg" p-id="14911" width="32" height="32" xmlns:xlink="http://www.w3.org/1999/xlink"><defs><style type="text/css"></style></defs><path d="M351.744 477.866667a64 64 0 0 1 23.722667 23.722666l171.050666 298.581334A64 64 0 0 1 490.965333 896H148.906667a64 64 0 0 1-55.552-95.829333l171.093333-298.581334a64 64 0 0 1 87.338667-23.722666zM320 768a21.333333 21.333333 0 1 0 0 42.666667 21.333333 21.333333 0 0 0 0-42.666667zM725.333333 256a128 128 0 0 1 128 128v42.666667h42.666667a42.666667 42.666667 0 0 1 42.666667 42.666666v85.333334a42.666667 42.666667 0 0 1-42.666667 42.666666h-42.666667v42.666667a128 128 0 0 1-128 128h-148.096l-164.778666-287.616a106.666667 106.666667 0 0 0-185.088 0l-126.506667 220.842667A127.445333 127.445333 0 0 1 85.333333 640V384a128 128 0 0 1 128-128h512z m-405.418666 298.666667a21.333333 21.333333 0 0 0-21.333334 21.333333v128l0.341334 3.84a21.333333 21.333333 0 0 0 42.325333-3.84v-128l-0.341333-3.84a21.333333 21.333333 0 0 0-20.992-17.493333z" p-id="14912"></path></svg>