<?xml version="1.0" standalone="no"?><!DOCTYPE svg PUBLIC "-//W3C//DTD SVG 1.1//EN" "http://www.w3.org/Graphics/SVG/1.1/DTD/svg11.dtd"><svg t="1600430132308" class="icon" viewBox="0 0 1365 1024" version="1.1" xmlns="http://www.w3.org/2000/svg" p-id="7966" width="42.65625" height="32" xmlns:xlink="http://www.w3.org/1999/xlink"><defs><style type="text/css"></style></defs><path d="M1126.4 1024H68.266667L0 955.733333V324.266667L68.266667 256H128v85.333333h-25.6l-17.066667 17.066667v563.2l17.066667 17.066667h989.866667l17.066666-17.066667V358.4l-17.066666-17.066667H1066.666667V256h59.733333L1194.666667 324.266667v631.466666z" fill="" p-id="7967"></path><path d="M1365.333333 810.666667h-213.333333v-85.333334h128v-170.666666h-128v-85.333334h213.333333zM567.466667 192h85.333333v251.733333h-85.333333zM567.466667 494.933333h85.333333V597.333333h-85.333333z" fill="" p-id="7968"></path><path d="M605.866667 789.333333C388.266667 789.333333 213.333333 614.4 213.333333 392.533333S388.266667 0 605.866667 0s392.533333 174.933333 392.533333 392.533333c4.266667 221.866667-170.666667 396.8-392.533333 396.8z m0-704C435.2 85.333333 298.666667 221.866667 298.666667 392.533333s136.533333 307.2 307.2 307.2 307.2-136.533333 307.2-307.2c4.266667-170.666667-132.266667-307.2-307.2-307.2z" fill="" p-id="7969"></path></svg>