<?xml version="1.0" standalone="no"?><!DOCTYPE svg PUBLIC "-//W3C//DTD SVG 1.1//EN" "http://www.w3.org/Graphics/SVG/1.1/DTD/svg11.dtd"><svg t="1601460937964" class="icon" viewBox="0 0 1024 1024" version="1.1" xmlns="http://www.w3.org/2000/svg" p-id="15393" width="32" height="32" xmlns:xlink="http://www.w3.org/1999/xlink"><defs><style type="text/css"></style></defs><path d="M458.666667 256H725.333333a128 128 0 0 1 127.786667 120.490667L853.333333 384v42.666667l42.666667 0.768a42.666667 42.666667 0 0 1 42.368 37.504l0.341333 5.12v85.333333a42.666667 42.666667 0 0 1-36.949333 42.325333l-5.717333 0.384L853.333333 597.333333v42.666667a128 128 0 0 1-120.490666 127.786667L725.333333 768H341.248a32 32 0 0 1-4.352-63.701333l4.352-0.298667H725.333333a64 64 0 0 0 63.701334-57.813333L789.333333 640V384a64 64 0 0 0-57.813333-63.701333L725.333333 320h-266.666666a32 32 0 0 1-4.352-63.701333L458.666667 256H725.333333h-266.666666z m-191.957334 213.248v266.752a32 32 0 0 1-63.658666 4.352l-0.298667-4.352v-266.752H160A74.666667 74.666667 0 0 1 85.333333 394.624V288A32 32 0 0 1 117.333333 256h32.042667V202.666667a32 32 0 0 1 27.648-31.701334L181.376 170.666667a32 32 0 0 1 31.701333 27.648l0.298667 4.352V256h42.453333V202.666667a32 32 0 0 1 27.733334-31.701334l4.266666-0.298666a32 32 0 0 1 31.744 27.648l0.298667 4.352L319.829333 256h32.341334a32 32 0 0 1 32 32v106.624a74.666667 74.666667 0 0 1-74.666667 74.666667l-42.794667-0.042667v266.752-266.752zM320.170667 320H149.333333v74.624c0 5.888 4.778667 10.666667 10.666667 10.666667h149.504a10.666667 10.666667 0 0 0 10.666667-10.666667V320z" p-id="15394"></path></svg>