<?xml version="1.0" standalone="no"?><!DOCTYPE svg PUBLIC "-//W3C//DTD SVG 1.1//EN" "http://www.w3.org/Graphics/SVG/1.1/DTD/svg11.dtd"><svg t="1601461118117" class="icon" viewBox="0 0 1024 1024" version="1.1" xmlns="http://www.w3.org/2000/svg" p-id="16214" xmlns:xlink="http://www.w3.org/1999/xlink" width="32" height="32"><defs><style type="text/css"></style></defs><path d="M725.333333 256a128 128 0 0 1 128 128v42.666667h42.666667a42.666667 42.666667 0 0 1 42.666667 42.666666v85.333334a42.666667 42.666667 0 0 1-42.666667 42.666666h-42.666667v42.666667a128 128 0 0 1-128 128H213.333333a128 128 0 0 1-128-128V384a128 128 0 0 1 128-128h512z m-0.085333 64H213.333333a64 64 0 0 0-63.744 57.856L149.333333 384v256a64 64 0 0 0 57.813334 63.701333L213.333333 704h511.914667a64 64 0 0 0 63.701333-57.813333l0.298667-6.186667V384a64 64 0 0 0-57.856-63.701333l-6.144-0.298667zM256.682667 384H384a42.666667 42.666667 0 0 1 42.368 37.674667L426.666667 426.666667v170.666666a42.666667 42.666667 0 0 1-37.717334 42.368L384 640H256.682667a42.666667 42.666667 0 0 1-42.368-37.674667L214.016 597.333333v-170.666666a42.666667 42.666667 0 0 1 37.717333-42.368L256.682667 384H384 256.682667z" p-id="16215"></path></svg>