<?xml version="1.0" standalone="no"?><!DOCTYPE svg PUBLIC "-//W3C//DTD SVG 1.1//EN" "http://www.w3.org/Graphics/SVG/1.1/DTD/svg11.dtd"><svg t="1598238455231" class="icon" viewBox="0 0 1024 1024" version="1.1" xmlns="http://www.w3.org/2000/svg" p-id="13467" xmlns:xlink="http://www.w3.org/1999/xlink" width="200" height="200"><defs><style type="text/css"></style></defs><path d="M1023.892918 127.983938A127.941105 127.941105 0 0 0 895.908981 0c-56.560505 0-104.061907 36.985987-120.937968 87.935416-73.586481-53.369473-163.83486-85.23696-261.664617-85.236959-98.814908 0-189.877107 32.509976-263.849082 86.843184-16.447735-51.763249-64.248965-89.520224-121.45196-89.520225A127.941105 127.941105 0 0 0 0.021416 128.005354c0 65.212699 48.893462 118.389426 111.921697 126.377714a443.275024 443.275024 0 0 0-45.252688 194.931359c0 202.341406 134.644414 373.029489 319.210274 427.919521-0.963734 6.146484-1.927469 12.292969-1.927469 18.696449 0 70.716694 57.267244 127.983938 127.983937 127.983938s127.983938-57.267244 127.983938-127.983938c0-6.146484-0.963734-12.100222-1.798971-18.053959 185.829422-54.011963 321.758815-225.25687 321.758816-428.562011 0-70.074204-16.576233-136.186389-45.381186-195.188355 61.764671-9.101937 109.373154-61.82892 109.373154-126.142134zM246.673192 175.399674c68.981972-67.140168 162.999624-108.730665 266.590371-108.730665 101.813193 0 194.288869 40.262685 262.885347 105.32547 1.734722 4.604509 3.705024 9.016271 5.889489 13.385201l-145.909399 117.297193c-33.53796-28.740704-76.606182-46.708997-124.214665-46.708997a190.862258 190.862258 0 0 0-132.267202 53.369473L237.07868 194.074706c3.662191-6.017986 6.981721-12.143054 9.594512-18.675032z m265.262559 144.56017a128.112436 128.112436 0 0 1 127.983938 127.983938c0 70.588196-57.395742 127.983938-127.983938 127.983938s-127.983938-57.395742-127.983938-127.983938a128.112436 128.112436 0 0 1 127.983938-127.983938zM63.970553 127.983938c0-35.251265 28.740704-63.991969 63.991968-63.991969S191.95449 92.732672 191.95449 127.983938c0 5.246999-1.798971 9.915757-2.998285 14.841511-4.861505 19.895763-18.053959 36.536245-36.664742 44.224704-7.495713 3.126783-15.676747 4.925754-24.307525 4.925754a64.120467 64.120467 0 0 1-64.013385-63.991969z m347.308487 689.712636c-161.586146-44.802945-280.682311-192.746894-280.682311-368.403564a379.925545 379.925545 0 0 1 62.321496-208.616388l-2.184465-1.798971c1.606224-0.899486 3.31953-1.670473 4.861505-2.634208-0.963734 1.413477-1.734722 2.934036-2.698457 4.411763l148.779186 120.252645c-13.44945 26.234994-21.758983 55.553938-21.758982 87.035931 0 95.024219 69.238968 173.429372 159.915673 188.720626l-9.401765 138.670682a127.769775 127.769775 0 0 0-59.15188 42.361484z m100.656711 142.204376a64.09905 64.09905 0 0 1-63.991969-63.991969c0-1.86322 0.899486-3.383779 1.027984-5.118501 2.741289-32.766972 29.511691-58.873468 62.963985-58.873468 33.602209 0 60.479692 26.299243 63.028234 59.258962 0.128498 1.670473 0.963734 3.062534 0.963735 4.733007a64.09905 64.09905 0 0 1-63.991969 63.991969z m101.106454-141.626135a127.127285 127.127285 0 0 0-78.062492-47.993977l9.08052-133.552181c90.612457-15.355503 159.851424-93.760656 159.851425-188.784875 0-35.187016-10.172753-67.761241-26.684737-96.116451l146.744635-118.003932 3.255281-2.634208c1.670473 2.377212 3.383779 4.797256 4.990003 7.238717a380.054043 380.054043 0 0 1 63.670724 210.865102c0.021416 176.427657-120.16698 324.885598-282.845359 368.981805zM895.908981 191.975907c-7.495713 0-14.456017-1.927469-21.180742-4.283265-21.30924-7.559962-36.471996-25.977998-40.562513-48.636466-0.706739-3.705024-2.248714-7.174468-2.248714-11.072238 0-35.251265 28.740704-63.991969 63.991969-63.991969s63.991969 28.740704 63.991969 63.991969-28.740704 63.991969-63.991969 63.991969z" p-id="13468" fill="#FFFFFF"></path></svg>