<?xml version="1.0" standalone="no"?><!DOCTYPE svg PUBLIC "-//W3C//DTD SVG 1.1//EN" "http://www.w3.org/Graphics/SVG/1.1/DTD/svg11.dtd"><svg t="1599981096415" class="icon" viewBox="0 0 1024 1024" version="1.1" xmlns="http://www.w3.org/2000/svg" p-id="8664" xmlns:xlink="http://www.w3.org/1999/xlink" width="200" height="200"><defs><style type="text/css"></style></defs><path d="M789.333333 1024c-129.365333 0-234.666667-105.258667-234.666666-234.666667s105.301333-234.666667 234.666666-234.666666 234.666667 105.258667 234.666667 234.666666-105.301333 234.666667-234.666667 234.666667z m0-426.666667c-105.856 0-192 86.144-192 192s86.144 192 192 192 192-86.144 192-192-86.144-192-192-192z" p-id="8665" fill="#000000"></path><path d="M789.333333 853.333333a21.333333 21.333333 0 0 1-21.333333-21.333333v-170.666667a21.333333 21.333333 0 0 1 42.666667 0v170.666667a21.333333 21.333333 0 0 1-21.333334 21.333333zM789.333333 938.666667c-5.546667 0-11.093333-2.133333-14.976-6.4a21.333333 21.333333 0 0 1-0.384-29.866667c8.533333-8.106667 22.613333-8.106667 30.293334 0a21.162667 21.162667 0 0 1-14.933334 36.266667z" p-id="8666" fill="#000000"></path><path d="M490.666667 981.333333C220.117333 981.333333 0 761.216 0 490.666667S220.117333 0 490.666667 0 981.333333 220.117333 981.333333 490.666667c0 17.066667-0.981333 34.688-3.072 53.845333a21.333333 21.333333 0 0 1-42.410666-4.608c1.749333-16.170667 2.816-32.554667 2.816-49.237333C938.666667 243.626667 737.706667 42.666667 490.666667 42.666667S42.666667 243.626667 42.666667 490.666667 243.626667 938.666667 490.666667 938.666667c16.64 0 33.024-1.066667 49.194666-2.816a21.333333 21.333333 0 1 1 4.693334 42.410666c-19.029333 2.090667-36.650667 3.072-53.888 3.072z" p-id="8667" fill="#000000"></path><path d="M490.666667 981.333333C335.146667 981.333333 213.333333 765.824 213.333333 490.666667S335.146667 0 490.666667 0 768 215.509333 768 490.666667a21.333333 21.333333 0 0 1-42.666667 0C725.333333 247.850667 617.856 42.666667 490.666667 42.666667S256 247.850667 256 490.666667 363.477333 938.666667 490.666667 938.666667a21.333333 21.333333 0 0 1 0 42.666666z" p-id="8668" fill="#000000"></path><path d="M490.666667 981.333333a21.333333 21.333333 0 0 1-21.333334-21.333333V21.333333a21.333333 21.333333 0 0 1 42.666667 0v938.666667a21.333333 21.333333 0 0 1-21.333333 21.333333z" p-id="8669" fill="#000000"></path><path d="M960 512H21.333333a21.333333 21.333333 0 0 1 0-42.666667h938.666667a21.333333 21.333333 0 0 1 0 42.666667zM874.666667 256h-768a21.333333 21.333333 0 0 1 0-42.666667h768a21.333333 21.333333 0 0 1 0 42.666667zM490.666667 768h-384a21.333333 21.333333 0 0 1 0-42.666667h384a21.333333 21.333333 0 0 1 0 42.666667z" p-id="8670" fill="#000000"></path></svg>