<?xml version="1.0" standalone="no"?><!DOCTYPE svg PUBLIC "-//W3C//DTD SVG 1.1//EN" "http://www.w3.org/Graphics/SVG/1.1/DTD/svg11.dtd"><svg t="1599982865402" class="icon" viewBox="0 0 1024 1024" version="1.1" xmlns="http://www.w3.org/2000/svg" p-id="699" data-spm-anchor-id="a313x.7781069.0.i5" xmlns:xlink="http://www.w3.org/1999/xlink" width="200" height="200"><defs><style type="text/css"></style></defs><path d="M226.304 448c72.704-83.456 179.2-131.072 291.84-131.072s219.136 47.616 291.84 131.072c7.168 8.704 20.48 9.216 28.672 2.048 8.704-7.68 9.216-20.48 2.048-28.672-80.384-92.16-198.144-145.408-322.56-145.408-124.416 0-242.176 52.736-322.56 144.896-7.168 8.704-6.656 21.504 2.048 28.672 8.192 7.68 20.992 7.168 28.672-1.536z" p-id="700" fill="#000000" data-spm-anchor-id="a313x.7781069.0.i2" class="selected"></path><path d="M724.992 529.408c7.168 8.704 19.968 10.24 28.672 3.072 8.704-7.168 10.24-19.968 3.072-28.672-58.368-71.68-145.408-112.64-238.592-112.64-93.696 0-180.736 40.96-238.592 112.64-7.168 8.704-5.632 21.504 3.072 28.672 8.704 7.168 21.504 5.632 28.672-3.072 50.176-61.952 125.952-97.28 206.848-97.28 80.896 0 156.16 35.328 206.848 97.28z" p-id="701" fill="#000000" data-spm-anchor-id="a313x.7781069.0.i1" class="selected"></path><path d="M637.952 608.768c7.168 8.704 19.968 10.24 28.672 3.584 8.192-6.656 10.24-17.92 4.608-27.136-34.816-49.664-92.16-79.36-153.6-79.36-62.464 0-120.32 30.208-155.136 81.408-6.144 9.728-3.072 22.016 6.144 28.16 9.216 5.632 21.504 3.584 27.648-5.12 27.136-39.424 72.192-63.488 120.832-63.488 49.152 0 93.696 23.04 120.832 61.952zM477.184 686.592c0 22.016 18.432 40.448 40.96 40.448s40.96-17.92 40.96-40.448c0-22.016-18.432-40.448-40.96-40.448-23.04 0-40.96 17.92-40.96 40.448 0-0.512 0 0 0 0z" p-id="702" fill="#000000" data-spm-anchor-id="a313x.7781069.0.i0" class="selected"></path><path d="M1024 512c0-282.624-229.376-512-512-512S0 229.376 0 512s229.376 512 512 512c113.152 0 221.184-36.864 309.248-103.936a24.4736 24.4736 0 1 0-29.696-38.912c-79.872 60.928-177.152 94.208-280.064 94.208-256 0-463.36-207.36-463.36-463.36S256 48.64 512 48.64 975.36 256 975.36 512c0 94.72-28.672 185.344-80.896 261.632-7.68 11.264-4.608 26.112 6.144 33.792 11.264 7.68 26.112 4.608 33.792-6.144 58.368-84.48 89.6-184.832 89.6-289.28z" p-id="703" fill="#1296db" data-spm-anchor-id="a313x.7781069.0.i6" class=""></path></svg>