<?xml version="1.0" standalone="no"?><!DOCTYPE svg PUBLIC "-//W3C//DTD SVG 1.1//EN" "http://www.w3.org/Graphics/SVG/1.1/DTD/svg11.dtd"><svg t="1599983915403" class="icon" viewBox="0 0 1024 1024" version="1.1" xmlns="http://www.w3.org/2000/svg" p-id="3486" width="24" height="24" data-spm-anchor-id="a313x.7781069.0.i15" xmlns:xlink="http://www.w3.org/1999/xlink"><defs><style type="text/css"></style></defs><path d="M298.666667 682.666667h490.666666a21.333333 21.333333 0 0 0 21.333334-21.333334v-341.333333a21.333333 21.333333 0 0 0-21.333334-21.333333H384v149.333333A64 64 0 0 1 320 512H298.666667v170.666667z m0 42.666666v64a21.333333 21.333333 0 1 1-42.666667 0V512h-21.333333A64 64 0 0 1 170.666667 448V256a21.333333 21.333333 0 0 1 42.666666 0v192a21.333333 21.333333 0 0 0 21.333334 21.333333h85.333333a21.333333 21.333333 0 0 0 21.333333-21.333333V256a21.333333 21.333333 0 0 1 42.666667 0h405.333333A64 64 0 0 1 853.333333 320v341.333333a64 64 0 0 1-64 64H298.666667z m64 42.666667h341.333333a21.333333 21.333333 0 1 1 0 42.666667h-341.333333a21.333333 21.333333 0 1 1 0-42.666667z m-85.333334-554.666667a21.333333 21.333333 0 0 1 21.333334 21.333334v170.666666a21.333333 21.333333 0 0 1-42.666667 0v-170.666666a21.333333 21.333333 0 0 1 21.333333-21.333334z" p-id="3487" fill="#1afa29"></path></svg>