<?xml version="1.0" standalone="no"?><!DOCTYPE svg PUBLIC "-//W3C//DTD SVG 1.1//EN" "http://www.w3.org/Graphics/SVG/1.1/DTD/svg11.dtd"><svg t="1598238381761" class="icon" viewBox="0 0 1024 1024" version="1.1" xmlns="http://www.w3.org/2000/svg" p-id="12617" xmlns:xlink="http://www.w3.org/1999/xlink" width="200" height="200"><defs><style type="text/css"></style></defs><path d="M1011.341056 119.48032a655343.90272 655343.90272 0 0 0-254.98112 830.58176c-16.78336 54.78912-38.28224 74.13248-80.90624 73.8816-29.3632-0.17408-47.85152-16.63488-62.23872-38.95808-51.79392-80.3584-103.17824-160.98816-154.3936-241.72544-25.27232-39.8336-24.07936-66.91328 5.6832-102.6816A71524.1216 71524.1216 0 0 1 724.426496 330.24c9.68704-11.49952 17.87392-23.41888 5.65248-35.77344-12.20608-12.31872-24.20224-4.49536-35.7888 5.26848a79684.13184 79684.13184 0 0 1-312.20224 261.69856c-31.81568 26.5216-59.30496 29.68576-94.04928 8.00256-84.72576-52.88448-168.6784-107.008-252.68736-161.03936C7.390976 390.41536-4.287744 364.04736 1.410816 331.20256c5.86752-33.86368 30.19264-49.67936 60.5696-58.97728A244957.8496 244957.8496 0 0 0 360.763136 180.67456c187.06944-57.46176 374.12352-114.95936 561.13664-172.61056 5.20704-1.60768 31.89248-7.73632 40.45312-7.73632C994.895616-3.0976 1024.007936 29.87008 1024.007936 61.9776c0 10.27584-9.80992 48.22528-12.66688 57.50272z" p-id="12618" fill="#FFFFFF"></path></svg>