<?xml version="1.0" standalone="no"?><!DOCTYPE svg PUBLIC "-//W3C//DTD SVG 1.1//EN" "http://www.w3.org/Graphics/SVG/1.1/DTD/svg11.dtd"><svg t="1599911474392" class="icon" viewBox="0 0 1024 1024" version="1.1" xmlns="http://www.w3.org/2000/svg" p-id="4155" xmlns:xlink="http://www.w3.org/1999/xlink" width="200" height="200"><defs><style type="text/css"></style></defs><path d="M141.074286 877.787429h741.851428c89.581714 0 134.582857-44.580571 134.582857-132.864V491.209143c0-38.582857-5.577143-57.856-24.429714-81.426286l-148.297143-183.003428c-50.139429-61.714286-72.411429-80.566857-148.297143-80.566858H327.497143c-75.849143 0-98.139429 18.852571-148.297143 80.566858L30.939429 409.782857C12.086857 433.371429 6.491429 452.644571 6.491429 491.209143v253.714286c0 88.722286 45.44 132.864 134.582857 132.864z m370.706285-273.865143c-60.434286 0-99.419429-52.717714-99.419428-102.418286v-1.28c0-18.011429-10.715429-34.724571-32.566857-34.724571H96.914286c-14.134857 0-17.133714-12.434286-9.837715-21.430858l158.994286-200.576c21.430857-26.569143 45.421714-37.284571 76.708572-37.284571h378.441142c31.268571 0 55.277714 10.715429 76.708572 37.302857l158.994286 200.557714c7.296 8.996571 4.278857 21.430857-9.856 21.430858H644.205714c-21.851429 0-32.548571 16.713143-32.548571 34.706285v1.28c0 49.737143-39.021714 102.436571-99.876572 102.436572zM142.354286 808.777143c-42.861714 0-66.852571-22.710857-66.852572-67.291429V528.091429h271.725715c10.697143 80.146286 77.549714 139.282286 164.571428 139.282285 86.985143 0 154.276571-59.574857 164.571429-139.282285H948.48V741.485714c0 44.562286-24.429714 67.291429-66.852571 67.291429z" p-id="4156" fill="#000000"></path></svg>