<?xml version="1.0" standalone="no"?><!DOCTYPE svg PUBLIC "-//W3C//DTD SVG 1.1//EN" "http://www.w3.org/Graphics/SVG/1.1/DTD/svg11.dtd"><svg t="1598181706636" class="icon" viewBox="0 0 1280 1024" version="1.1" xmlns="http://www.w3.org/2000/svg" p-id="6608" xmlns:xlink="http://www.w3.org/1999/xlink" width="250" height="200"><defs><style type="text/css"></style></defs><path d="M515.962 545.942L127.276 934.628c-18.746 18.746-49.138 18.746-67.882 0L14.058 889.294c-18.714-18.714-18.75-49.044-0.08-67.802L322.022 512 13.98 202.51c-18.67-18.758-18.634-49.088 0.08-67.802l45.334-45.334c18.746-18.746 49.138-18.746 67.882 0L515.962 478.06c18.746 18.744 18.746 49.136 0 67.882zM1280 912v-64c0-26.51-21.49-48-48-48H624c-26.51 0-48 21.49-48 48v64c0 26.51 21.49 48 48 48h608c26.51 0 48-21.49 48-48z" fill="#2c2c2c" p-id="6609"></path></svg>