<?xml version="1.0" standalone="no"?><!DOCTYPE svg PUBLIC "-//W3C//DTD SVG 1.1//EN" "http://www.w3.org/Graphics/SVG/1.1/DTD/svg11.dtd"><svg t="1599394558296" class="icon" viewBox="0 0 1024 1024" version="1.1" xmlns="http://www.w3.org/2000/svg" p-id="6052" xmlns:xlink="http://www.w3.org/1999/xlink" width="200" height="200"><defs><style type="text/css"></style></defs><path d="M500.955735 149.427038c-5.597267 191.306589-160.221767 345.831137-351.528356 351.528355 5.697218-191.306589 160.221767-345.931088 351.528356-351.528355m10.794729-42.879063C288.059688 106.547975 106.648267 287.959395 106.648267 511.750122c0 10.294973 0.79961 20.390044 1.499268 30.485115 10.095071 0.79961 20.190142 1.499268 30.485115 1.499268 223.790727 0 405.102196-181.41142 405.102196-405.102197 0-10.294973-0.79961-20.390044-1.499268-30.485114-10.095071-0.79961-20.190142-1.599219-30.485114-1.599219z" p-id="6053" fill="#5698c3"></path><path d="M511.750464 149.227135c199.902391 0 362.522987 162.620595 362.522986 362.522987S711.652855 874.173158 511.750464 874.173158 149.327428 711.652513 149.327428 511.750122s162.620595-362.522987 362.423036-362.522987m0-42.67916C288.059688 106.547975 106.648267 287.959395 106.648267 511.750122s181.41142 405.102196 405.102197 405.102196 405.102196-181.41142 405.102196-405.102196-181.311469-405.202147-405.102196-405.202147z" p-id="6054" fill="#5698c3"></path><path d="M873.573792 533.739385c-10.994632 182.410932-157.423133 328.839434-339.834065 339.834065 10.994632-182.410932 157.423133-328.939385 339.834065-339.834065m21.989263-43.378819C671.872279 490.360566 490.460859 671.771986 490.460859 895.562714c0 6.896633 0.699658 13.493411 0.999512 20.290092 6.796681 0.299854 13.493411 0.999512 20.290093 0.999512 223.790727 0 405.102196-181.41142 405.102196-405.102196 0-6.896633-0.699658-13.493411-0.999512-20.290093-6.69673-0.399805-13.39346-1.099463-20.290093-1.099463z" p-id="6055" fill="#5698c3"></path></svg>