<?xml version="1.0" standalone="no"?><!DOCTYPE svg PUBLIC "-//W3C//DTD SVG 1.1//EN" "http://www.w3.org/Graphics/SVG/1.1/DTD/svg11.dtd"><svg t="1599647009085" class="icon" viewBox="0 0 1024 1024" version="1.1" xmlns="http://www.w3.org/2000/svg" p-id="3826" xmlns:xlink="http://www.w3.org/1999/xlink" width="200" height="200"><defs><style type="text/css"></style></defs><path d="M882.758621 8.827586A132.413793 132.413793 0 0 1 1015.172414 141.241379v741.517242a132.413793 132.413793 0 0 1-132.413793 132.413793H141.241379A132.413793 132.413793 0 0 1 8.827586 882.758621V141.241379A132.413793 132.413793 0 0 1 141.241379 8.827586zM61.793103 353.103448v529.655173A79.448276 79.448276 0 0 0 141.241379 962.206897h741.517242a79.448276 79.448276 0 0 0 79.448276-79.448276V353.103448h-900.413794z m0-52.965517h900.413794V141.241379A79.448276 79.448276 0 0 0 882.758621 61.793103H141.241379A79.448276 79.448276 0 0 0 61.793103 141.241379v158.896552z" p-id="3827" fill="#000000"></path></svg>